M48
;FILE_FORMAT=2:4
INCH
;TYPE=PLATED
T01C0.018
T02C0.038
%
T01
X+205250Y+368000
X+214750Y+365500
X+213500Y+368000
X+218000Y+366750
Y+368500
X+218500Y+367500
X+224000Y+363750
X+223250Y+364000
X+214250Y+366250
X+214750Y+369250
X+217250Y+366000
X+216000Y+364500
Y+368500
X+213250Y+367000
X+216000Y+370500
T02
X+225000Y+366000
X+224000
Y+367000
X+225000
X+224000Y+368000
X+225000
X+224000Y+369000
X+225000
Y+370000
X+224000
X+206000Y+356000
X+207000
X+208000
X+209000
X+210000
X+211000
X+212000
X+213000
X+206000Y+362000
X+207000
X+208000
X+209000
X+210000
X+211000
X+212000
X+213000
X+214000Y+356000
X+215000
X+214000Y+362000
X+215000
X+216000Y+356000
X+217000
X+218000
X+219000
X+220000
X+221000
X+222000
X+223000
X+224000
X+216000Y+362000
X+217000
X+218000
X+219000
X+220000
X+221000
X+222000
X+223000
X+224000
X+225000Y+356000
Y+362000
T00
M30
